# xmcd
#
# Track frame offsets: 
#        150
#        21657
#        35855
#        53687
#        74660
#        95917
#        110957
#        131995
#        156812
#        176430
#        199800
#        220025
#        241532
#
# Disc length: 3496 seconds
#
# Revision: 1
# Processed by: cddbd v1.5.2PL0 Copyright (c) Steve Scherf et al.
# Submitted via: ExactAudioCopy v0.99pb5
#
DISCID=c90da60d
DTITLE=Dan Barrett - Melody in Swing
DYEAR=1900
DGENRE=Jazz
TTITLE0=Melody in Swing 
TTITLE1=I'm Nobody's Baby
TTITLE2=Carelessly
TTITLE3=What is This Thing Called Love?
TTITLE4=My Mother's Eyes
TTITLE5=Teezol
TTITLE6=There is No Greater Love
TTITLE7=Take My Heart
TTITLE8=Finesse
TTITLE9=Besame Mucho
TTITLE10=You've Got Me Crying Again
TTITLE11=Mighty Like the Blues
TTITLE12=Gravy Waltz
EXTD=
EXTT0=
EXTT1=
EXTT2=
EXTT3=
EXTT4=
EXTT5=
EXTT6=
EXTT7=
EXTT8=
EXTT9=
EXTT10=
EXTT11=
EXTT12=
PLAYORDER=
